<svg xmlns="http://www.w3.org/2000/svg" viewBox="0 0 512 512" width="512" height="512">
  <defs>
    <linearGradient id="bg" x1="0%" y1="0%" x2="100%" y2="100%">
      <stop offset="0%" style="stop-color:#6366f1"/>
      <stop offset="100%" style="stop-color:#4f46e5"/>
    </linearGradient>
    <linearGradient id="check" x1="0%" y1="0%" x2="100%" y2="100%">
      <stop offset="0%" style="stop-color:#34d399"/>
      <stop offset="100%" style="stop-color:#10b981"/>
    </linearGradient>
  </defs>
  <!-- 背景圆角矩形 -->
  <rect x="32" y="32" width="448" height="448" rx="96" ry="96" fill="url(#bg)"/>
  <!-- 剪贴板主体 -->
  <rect x="120" y="100" width="272" height="320" rx="28" ry="28" fill="white" opacity="0.95"/>
  <!-- 剪贴板顶部夹子 -->
  <rect x="180" y="72" width="152" height="56" rx="20" ry="20" fill="white" opacity="0.95"/>
  <rect x="200" y="88" width="112" height="8" rx="4" fill="#d1d5db"/>
  <!-- 任务行 -->
  <rect x="160" y="180" width="192" height="10" rx="5" fill="#e5e7eb"/>
  <rect x="160" y="220" width="150" height="10" rx="5" fill="#e5e7eb"/>
  <rect x="160" y="260" width="170" height="10" rx="5" fill="#e5e7eb"/>
  <!-- 对勾圆圈 -->
  <circle cx="368" cy="260" r="48" fill="url(#check)"/>
  <polyline points="345,260 360,278 392,243" fill="none" stroke="white" stroke-width="12" stroke-linecap="round" stroke-linejoin="round"/>
  <!-- 装饰点 -->
  <circle cx="148" cy="182" r="6" fill="#6366f1"/>
  <circle cx="148" cy="222" r="6" fill="#6366f1"/>
  <circle cx="148" cy="262" r="6" fill="#6366f1"/>
</svg>
